<svg width="89" height="89" viewBox="0 0 89 89" fill="none" xmlns="http://www.w3.org/2000/svg">
<g filter="url(#filter0_dd_616_144)">
<circle cx="44.5" cy="40.5" r="36.5" fill="white"/>
</g>
<path d="M68.6742 33.0184C68.6742 33.0184 68.3017 32.0528 68.2203 31.0336C68.124 29.8431 67.0106 27.916 65.4132 27.4814C63.7538 27.0296 61.8139 26.7555 59.7712 29.2414L59.5678 29.4876C57.6772 31.7958 55.324 34.6714 49.8405 35.408C45.0528 36.0503 42.4963 37.5834 38.625 39.9044C37.7065 40.4547 36.7579 41.0243 35.6681 41.6495C30.7476 44.4758 23.4998 45.2895 21.395 45.4715C21.1723 45.4908 20.9753 45.6192 20.8661 45.8141C20.7569 46.0089 20.7526 46.2423 20.8533 46.4414C21.2473 47.223 22.1701 48.5719 23.988 49.0665C24.0329 49.3277 24.1571 49.7217 24.504 50.0643C24.9472 50.5033 25.6067 50.7238 26.4674 50.7238C26.5081 50.7238 26.5531 50.7238 26.5959 50.7217C26.6516 51.0257 26.8015 51.4646 27.189 51.8201C27.6087 52.2033 28.1932 52.396 28.9362 52.396C29.1396 52.396 29.3559 52.3811 29.585 52.3532C29.6728 52.3425 29.767 52.3232 29.8676 52.2997C29.9468 52.5481 30.1096 52.8564 30.435 53.0748C30.6984 53.2525 31.0196 53.3403 31.3964 53.3403C31.8032 53.3403 32.2764 53.2375 32.8096 53.032C35.2998 52.0749 42.2415 44.9084 42.9352 44.1889C44.3355 43.5808 45.3783 42.8593 46.2455 42.2576C47.6522 41.2812 48.5815 40.6346 50.0182 41.0179C51.031 41.2876 51.6562 41.8379 51.8725 42.6516C52.0009 43.1312 51.9517 43.5766 51.9196 43.7628C48.1211 47.148 47.7207 47.1587 44.7552 47.2401L44.6096 47.2444C41.3529 47.3343 39.9076 49.2635 39.3637 49.9915L39.338 50.0258C39.0276 50.439 38.9312 51.2034 39.3594 51.8094C39.7705 52.3918 40.46 52.578 41.1752 52.578C41.8903 52.578 42.5776 52.4046 43.0936 52.244C43.5133 52.1113 43.933 52.0149 44.3527 51.9421C44.4062 51.9571 44.464 51.9593 44.5239 51.9443C44.5625 51.9336 44.5989 51.9164 44.6289 51.895C45.4811 51.7665 46.3375 51.7259 47.2261 51.683C49.423 51.5781 51.9131 51.4582 54.8358 49.8716C58.6621 47.7947 59.6685 44.994 60.8333 41.748C61.2444 40.6003 61.6705 39.4163 62.2507 38.1872C64.3427 33.755 68.216 33.4916 68.3788 33.4809C68.488 33.4745 68.5865 33.4167 68.6464 33.3268C68.7064 33.2347 68.7171 33.1212 68.6785 33.0184H68.6742ZM26.688 50.0386C25.9043 50.075 25.3348 49.923 24.99 49.589C24.8551 49.4562 24.7716 49.3128 24.7224 49.1843C24.7952 49.1886 24.8701 49.1886 24.9472 49.1886C26.9321 49.1886 30.8633 48.1544 34.7923 46.9403C33.1072 47.9767 28.8356 49.9358 26.688 50.0365V50.0386ZM29.4972 51.6766C28.6536 51.7858 28.0348 51.6659 27.6536 51.3233C27.4245 51.1156 27.3218 50.8565 27.2768 50.6617C29.9361 50.2699 34.4326 48.0923 35.6338 47.1973C36.6294 46.4564 36.9185 46.283 36.9763 46.2509C37.8371 45.9725 38.6807 45.692 39.4836 45.4201C38.61 46.0882 37.4581 46.9532 36.2376 47.8204C32.0002 50.8351 30.2316 51.5824 29.4951 51.6766H29.4972ZM38.4216 47.6983C34.833 51.0985 33.255 52.1284 32.5634 52.3939C31.769 52.7001 31.1652 52.7408 30.8162 52.5117C30.6427 52.396 30.5549 52.2248 30.51 52.0856C33.711 50.8287 40.2416 45.707 41.355 44.8249C40.6035 45.5828 39.55 46.6277 38.4195 47.6983H38.4216ZM61.6319 37.896C61.0388 39.1529 60.6063 40.3541 60.1909 41.5167C59.0732 44.63 58.1076 47.3193 54.5104 49.2721C51.7247 50.7837 49.4208 50.8951 47.1919 51.0021C46.3354 51.0428 45.5067 51.0835 44.676 51.1991C44.6117 50.9914 44.5368 50.7923 44.449 50.5868C44.3034 50.272 44.1514 49.9637 43.873 49.7303C43.5176 49.4562 42.963 49.5333 42.4856 49.6789C42.4856 49.6789 42.4856 49.6789 42.4813 49.6789C42.4599 49.6875 42.3806 49.7217 42.3806 49.7517C42.3806 49.7795 42.4663 49.7774 42.4963 49.7753C42.5005 49.7753 42.5027 49.7753 42.5048 49.7753C42.7768 49.7453 43.0508 49.7453 43.3142 49.8031C43.599 49.8438 43.7403 50.0707 43.8388 50.3298C43.9544 50.6339 44.0229 50.9679 44.0657 51.2955C43.676 51.3704 43.2864 51.4646 42.8902 51.5867C41.4064 52.0513 40.323 51.9871 39.914 51.409C39.6699 51.0642 39.7384 50.6146 39.8819 50.424L39.9076 50.3898C40.4429 49.6746 41.6997 47.9959 44.6267 47.9146L44.7723 47.9103C47.74 47.8289 48.3545 47.8118 52.0737 44.523L52.7204 44.2553C52.8446 44.2039 52.8917 44.0498 52.8167 43.9384L52.6154 43.6344C52.6861 42.8293 52.5726 40.9857 50.1916 40.3519C49.8426 40.2599 49.5172 40.2171 49.2088 40.2171C47.9798 40.2171 47.0163 40.8872 45.8558 41.6902C44.7809 42.4353 43.5647 43.2811 41.7511 43.9149C39.9697 44.5379 38.2974 45.1032 36.7472 45.6064C36.7472 45.6064 36.7279 45.6107 36.7151 45.6171C30.161 47.7411 25.763 48.7625 24.3777 48.4563C22.6818 48.0837 21.8275 46.8504 21.4678 46.1417C23.6218 45.9554 30.9767 45.1246 36.0085 42.2319C37.1026 41.6024 38.0983 41.0071 38.9762 40.4804C42.9095 38.123 45.2841 36.6991 49.9326 36.0739C55.6816 35.3009 58.129 32.314 60.0946 29.9116L60.2958 29.6654C62.0816 27.4899 63.6511 27.6976 65.2334 28.1301C66.5074 28.477 67.4666 30.1364 67.5416 31.0807C67.5972 31.783 67.7728 32.4425 67.8991 32.8493C66.7236 33.042 63.5055 33.9241 61.6319 37.8896V37.896Z" fill="#D93D65"/>
<path d="M31.3964 53.4452C30.9981 53.4452 30.6555 53.3489 30.3751 53.1626C30.116 52.987 29.9168 52.7343 29.7991 52.4239C29.7284 52.4389 29.662 52.4496 29.5999 52.4581C28.5165 52.5973 27.6772 52.4089 27.1205 51.8993C26.7479 51.5588 26.5852 51.1456 26.5124 50.8308C26.4974 50.8308 26.4845 50.833 26.4695 50.8308C25.5788 50.8308 24.8936 50.5996 24.4312 50.1414C24.0971 49.8095 23.9558 49.4327 23.898 49.1543C22.0737 48.6319 21.1509 47.2658 20.759 46.4928C20.6434 46.2616 20.6477 45.9918 20.774 45.7648C20.9004 45.5379 21.1295 45.3901 21.3864 45.3687C23.4848 45.1867 30.7134 44.3773 35.6145 41.5596C36.7151 40.9279 37.6572 40.3626 38.5693 39.8145C42.4513 37.487 45.0164 35.9497 49.8255 35.3031C55.2662 34.5729 57.6043 31.7166 59.4843 29.4212L59.6877 29.175C61.7711 26.6399 63.7495 26.9182 65.441 27.3807C67.0833 27.8282 68.2289 29.8067 68.3273 31.0271C68.4044 31.9842 68.7363 32.8814 68.7748 32.9799L68.6764 33.0184L68.777 32.9799C68.8284 33.1126 68.8134 33.2647 68.7363 33.3846C68.6592 33.5045 68.5265 33.5815 68.3852 33.588C68.2246 33.5965 64.4133 33.8599 62.347 38.2322C61.7689 39.4569 61.345 40.6389 60.9339 41.7822C59.7627 45.0475 58.7499 47.8675 54.8872 49.9637C51.9431 51.561 49.4401 51.6809 47.2325 51.7879C46.3461 51.8308 45.5067 51.8714 44.6674 51.9956C44.6288 52.0192 44.5903 52.0363 44.5496 52.0449C44.4854 52.062 44.419 52.062 44.3505 52.047C43.9158 52.1241 43.5154 52.2205 43.1279 52.3425C42.6333 52.4967 41.8946 52.6808 41.1794 52.6808C40.2972 52.6808 39.657 52.4067 39.2759 51.8672C38.8177 51.2184 38.9248 50.3983 39.2566 49.9572L39.2823 49.923C39.8348 49.1843 41.3015 47.2251 44.6096 47.133L44.7552 47.1287C47.695 47.0495 48.0783 47.0388 51.821 43.705C51.8489 43.5187 51.8874 43.1119 51.7718 42.6772C51.5641 41.9021 50.9667 41.3776 49.9925 41.1185C48.605 40.7502 47.6907 41.384 46.3097 42.3432C45.4596 42.932 44.404 43.6665 43.0015 44.2767C42.1558 45.1524 35.3383 52.1734 32.8524 53.1305C32.3085 53.3403 31.8203 53.4452 31.4007 53.4452H31.3964ZM29.9404 52.1691L29.9704 52.2633C30.071 52.5738 30.2466 52.8157 30.495 52.9827C31.0088 53.3274 31.7818 53.3082 32.771 52.9292C35.2291 51.9828 42.0851 44.9148 42.8581 44.1118L42.8923 44.0883C44.2863 43.4823 45.3376 42.7522 46.1833 42.1655C47.6158 41.172 48.56 40.5147 50.0439 40.9086C51.0973 41.187 51.7461 41.763 51.9752 42.6194C52.1101 43.1269 52.0544 43.5958 52.0245 43.7757L52.018 43.8121L51.9902 43.8378C48.1618 47.2487 47.7078 47.2615 44.7595 47.3429L44.6139 47.3472C41.4085 47.4349 39.9868 49.3363 39.4515 50.0493L39.4258 50.0836C39.1389 50.4668 39.0489 51.1777 39.4493 51.743C39.7876 52.2226 40.37 52.4667 41.1773 52.4667C41.8667 52.4667 42.5819 52.2868 43.0636 52.137C43.4662 52.0106 43.8816 51.91 44.3355 51.8308L44.3591 51.8265L44.3826 51.8329C44.4233 51.8436 44.4618 51.8458 44.4982 51.835C44.5239 51.8286 44.5475 51.8179 44.571 51.8008L44.6139 51.7837C45.4703 51.6531 46.3204 51.6124 47.2218 51.5695C49.4079 51.4646 51.8853 51.3447 54.7844 49.771C58.5743 47.7133 59.5742 44.9298 60.7305 41.7052C61.1416 40.5575 61.5677 39.3713 62.1522 38.1358C64.2698 33.6501 68.2053 33.3781 68.3723 33.3696C68.4473 33.3653 68.5158 33.3267 68.5564 33.2625C68.5971 33.2004 68.6057 33.1212 68.5779 33.0527L68.6785 33.0141L68.5779 33.0505C68.5393 32.9478 68.1967 32.0249 68.1175 31.0378C68.0254 29.8795 66.942 28.0038 65.3875 27.5798C63.7624 27.1366 61.8589 26.8668 59.8569 29.3035L59.6535 29.5497C57.7499 31.8729 55.3818 34.7656 49.8576 35.5065C45.0913 36.1467 42.5433 37.6755 38.6828 39.9879C37.7685 40.5361 36.8243 41.1013 35.7237 41.7351C30.784 44.5743 23.5169 45.3901 21.4078 45.5721C21.2194 45.5892 21.0545 45.6963 20.9625 45.859C20.8725 46.0218 20.8682 46.2188 20.9517 46.3858C21.3307 47.1373 22.2343 48.4691 24.02 48.9552L24.0864 48.9723L24.0971 49.0387C24.1421 49.2913 24.2599 49.6596 24.5832 49.9787C25.005 50.3962 25.6388 50.6082 26.4717 50.6082C26.4995 50.6082 26.5295 50.6082 26.5573 50.6082L26.6879 50.6039L26.7051 50.6938C26.7586 50.9829 26.8999 51.3983 27.2661 51.7323C27.7735 52.1969 28.5551 52.3682 29.5743 52.2376C29.6556 52.2269 29.7477 52.2098 29.8462 52.1862L29.9425 52.1626L29.9404 52.1691ZM31.3985 52.7643C31.1394 52.7643 30.9253 52.7108 30.7605 52.6016C30.5999 52.4945 30.4778 52.3275 30.4115 52.1177L30.3815 52.0213L30.4757 51.9849C33.6425 50.7409 40.0424 45.7327 41.2929 44.7413L41.4363 44.8998C40.7383 45.6042 39.6613 46.6748 38.4987 47.7754L38.4259 47.6983L38.4987 47.7754C34.8972 51.1884 33.3063 52.2247 32.6062 52.4945C32.1394 52.6744 31.7347 52.7643 31.4007 52.7643H31.3985ZM30.6491 52.1455C30.7026 52.2654 30.7797 52.3575 30.8761 52.4217C31.1887 52.6294 31.7754 52.5823 32.5248 52.2933C33.2078 52.032 34.7709 51.0064 38.3466 47.6191C38.9462 47.0517 39.5221 46.4928 40.036 45.9875C37.655 47.8139 33.1928 51.1049 30.647 52.1455H30.6491ZM41.188 52.0042C40.5478 52.0042 40.0767 51.8265 39.8283 51.4753C39.5414 51.0707 39.6399 50.5739 39.7962 50.3641L39.8219 50.3298C40.3679 49.6018 41.6462 47.8953 44.6246 47.8139L44.7702 47.8096C47.7014 47.7304 48.3117 47.7133 52.003 44.4501L52.033 44.4309L52.6796 44.1632C52.7096 44.1504 52.7332 44.1268 52.7417 44.0947C52.7482 44.0776 52.7524 44.0412 52.7289 44.0048L52.5062 43.6686L52.5105 43.6322C52.5769 42.8849 52.4805 41.0778 50.1659 40.4633C49.834 40.3755 49.5214 40.3327 49.211 40.3327C48.0162 40.3327 47.0912 40.975 45.92 41.7865C44.8387 42.5359 43.6161 43.386 41.7896 44.024C40.0275 44.6407 38.3424 45.2103 36.7836 45.7156L36.6787 45.7498C30.1117 47.876 25.7373 48.8738 24.3562 48.5698C22.6133 48.1865 21.7397 46.9189 21.3736 46.1973L21.3008 46.056L21.4592 46.0432C23.5918 45.859 30.9382 45.0304 35.9549 42.1484C37.0598 41.5125 38.0918 40.8937 38.9205 40.3969C42.8645 38.0309 45.2476 36.6049 49.9175 35.9754C55.6238 35.2088 58.0561 32.239 60.011 29.8516L60.2123 29.6054C62.0387 27.3807 63.6425 27.5927 65.2612 28.0338C66.578 28.3935 67.5715 30.1043 67.6486 31.0807C67.7043 31.7637 67.8713 32.406 68.0019 32.8257L68.0383 32.9435L67.9162 32.9627C66.6658 33.1683 63.5611 34.0655 61.7282 37.9431C61.1373 39.1957 60.7069 40.3948 60.2894 41.5531C59.1653 44.6878 58.1932 47.3943 54.5575 49.3663C51.7504 50.8887 49.4336 51 47.194 51.1092C46.3718 51.1477 45.5217 51.1884 44.6867 51.3062L44.5967 51.319L44.5689 51.2334C44.5025 51.0214 44.4297 50.8244 44.3462 50.6317C44.207 50.3255 44.0571 50.0322 43.8002 49.8138C43.6311 49.6832 43.3891 49.6339 43.0765 49.6639C43.1643 49.6725 43.2499 49.6853 43.3334 49.7024C43.691 49.7538 43.8473 50.0664 43.9351 50.2955C44.0422 50.5739 44.1192 50.9079 44.1685 51.2869L44.1813 51.3875L44.0828 51.4068C43.6717 51.486 43.2906 51.5802 42.9202 51.6959C42.2586 51.9036 41.6719 52.0063 41.1858 52.0063L41.188 52.0042ZM52.1315 44.6214C48.3952 47.9231 47.7678 47.9403 44.7766 48.0238L44.631 48.028C41.7554 48.1073 40.5199 49.756 39.9932 50.4583L39.9675 50.4947C39.8476 50.6553 39.7898 51.0535 40.0018 51.3533C40.3808 51.8907 41.4235 51.9421 42.8581 51.4903C43.2071 51.3811 43.5647 51.2912 43.9458 51.2141C43.8987 50.8929 43.8302 50.6103 43.7381 50.3705C43.6268 50.0771 43.4962 49.9401 43.2992 49.9123C43.0615 49.8609 42.8067 49.8523 42.5155 49.8844C42.3806 49.893 42.3335 49.8673 42.3099 49.8438L42.2757 49.8116L42.2714 49.756C42.2714 49.6853 42.3292 49.6254 42.4406 49.5825C43.1172 49.377 43.6161 49.3984 43.9372 49.6468C44.2327 49.8951 44.3933 50.212 44.5453 50.5439C44.6224 50.7195 44.6888 50.8951 44.7487 51.0814C45.5645 50.9722 46.3889 50.9336 47.1854 50.8951C49.4015 50.788 51.6926 50.6788 54.4568 49.1779C58.0197 47.2444 58.979 44.5722 60.0881 41.4803C60.5056 40.3155 60.9382 39.1122 61.5334 37.851C63.3534 33.9991 66.4067 33.0184 67.7599 32.77C67.6315 32.3418 67.4837 31.738 67.4323 31.0956C67.3595 30.1814 66.4324 28.5733 65.2012 28.2393C63.6553 27.8175 62.1201 27.6141 60.375 29.7403L60.1738 29.9865C58.1953 32.4018 55.733 35.4101 49.9432 36.1874C45.3162 36.8083 42.948 38.2279 39.0275 40.5789C38.1968 41.0757 37.1647 41.6966 36.0577 42.3325C31.1223 45.1674 23.9644 46.0282 21.6348 46.2423C22.0223 46.9425 22.851 48.0195 24.399 48.3599C25.7523 48.6597 30.1138 47.6512 36.6808 45.5229C36.6872 45.5207 36.7001 45.5143 36.7129 45.51L36.8178 45.4758C38.3466 44.9812 39.9953 44.4244 41.7168 43.8206C43.5154 43.1911 44.7252 42.3518 45.7936 41.6109C46.9499 40.808 47.9455 40.1164 49.2088 40.1164C49.5385 40.1164 49.8683 40.1614 50.2173 40.2556C52.6518 40.9022 52.7867 42.7886 52.7225 43.6129L52.9045 43.8849C52.958 43.9662 52.973 44.0647 52.9452 44.1568C52.9173 44.2489 52.8488 44.3238 52.761 44.3602L52.1315 44.6214ZM28.934 51.8222C28.3452 51.8222 27.8934 51.6809 27.583 51.4025C27.3282 51.1734 27.219 50.8865 27.174 50.6852L27.1483 50.5718L27.2639 50.5546C29.8697 50.1714 34.3319 48.0345 35.5738 47.1095C36.5588 46.3772 36.8585 46.1952 36.927 46.1567C37.7493 45.889 38.5929 45.6085 39.4536 45.3173L40.0681 45.1096L39.5521 45.5036C38.4216 46.3686 37.3296 47.1759 36.304 47.906C32.0473 50.9336 30.2637 51.6852 29.5143 51.7815C29.3087 51.8072 29.116 51.8201 28.9383 51.8201L28.934 51.8222ZM27.4117 50.7473C27.4631 50.9036 27.5551 51.0899 27.7243 51.2441C28.0797 51.5653 28.6728 51.6766 29.4822 51.5717C30.2059 51.4796 31.9552 50.7366 36.1755 47.7347C37.0427 47.118 37.9569 46.4457 38.9012 45.7306C38.2546 45.9468 37.6208 46.1567 37.0084 46.3536C36.9806 46.3708 36.6958 46.5399 35.698 47.2829C34.4625 48.2036 30.0624 50.3148 27.4117 50.7495V50.7473ZM26.4695 50.1499C25.7694 50.1499 25.2469 49.9872 24.9151 49.666C24.7866 49.5419 24.6881 49.392 24.6217 49.225L24.5618 49.0708L24.7266 49.0772C26.3518 49.15 29.722 48.3942 34.7602 46.8397L35.5674 46.5913L34.848 47.0345C33.1714 48.0666 28.8934 50.0429 26.6944 50.1457C26.6194 50.1499 26.5445 50.1499 26.4717 50.1499H26.4695ZM24.8936 49.2956C24.9408 49.3748 24.9964 49.4455 25.0628 49.5097C25.384 49.8223 25.93 49.9615 26.6815 49.9294C28.5101 49.8438 31.9381 48.3685 33.8951 47.3257C29.5571 48.634 26.5488 49.2956 24.945 49.2956C24.9279 49.2956 24.9108 49.2956 24.8936 49.2956Z" fill="#D93D65"/>
<path d="M65.5481 30.1043C65.2398 30.1043 64.9914 30.3527 64.9914 30.661C64.9914 30.9693 65.2398 31.2177 65.5481 31.2177C65.8564 31.2177 66.1048 30.9693 66.1048 30.661C66.1048 30.3527 65.8564 30.1043 65.5481 30.1043Z" fill="#D93D65"/>
<path d="M65.5481 31.3269C65.182 31.3269 64.8843 31.0293 64.8843 30.6631C64.8843 30.297 65.182 29.9994 65.5481 29.9994C65.9142 29.9994 66.2119 30.297 66.2119 30.6631C66.2119 31.0293 65.9142 31.3269 65.5481 31.3269ZM65.5481 30.2135C65.2997 30.2135 65.0985 30.4147 65.0985 30.6631C65.0985 30.9115 65.2997 31.1128 65.5481 31.1128C65.7965 31.1128 65.9977 30.9115 65.9977 30.6631C65.9977 30.4147 65.7965 30.2135 65.5481 30.2135Z" fill="#D93D65"/>
<defs>
<filter id="filter0_dd_616_144" x="0" y="0" width="89" height="89" filterUnits="userSpaceOnUse" color-interpolation-filters="sRGB">
<feFlood flood-opacity="0" result="BackgroundImageFix"/>
<feColorMatrix in="SourceAlpha" type="matrix" values="0 0 0 0 0 0 0 0 0 0 0 0 0 0 0 0 0 0 127 0" result="hardAlpha"/>
<feOffset dy="4"/>
<feGaussianBlur stdDeviation="4"/>
<feColorMatrix type="matrix" values="0 0 0 0 0 0 0 0 0 0 0 0 0 0 0 0 0 0 0.06 0"/>
<feBlend mode="normal" in2="BackgroundImageFix" result="effect1_dropShadow_616_144"/>
<feColorMatrix in="SourceAlpha" type="matrix" values="0 0 0 0 0 0 0 0 0 0 0 0 0 0 0 0 0 0 127 0" result="hardAlpha"/>
<feOffset/>
<feGaussianBlur stdDeviation="2"/>
<feColorMatrix type="matrix" values="0 0 0 0 0 0 0 0 0 0 0 0 0 0 0 0 0 0 0.04 0"/>
<feBlend mode="normal" in2="effect1_dropShadow_616_144" result="effect2_dropShadow_616_144"/>
<feBlend mode="normal" in="SourceGraphic" in2="effect2_dropShadow_616_144" result="shape"/>
</filter>
</defs>
</svg>
